0
SECTION
2
ENTITIES
0
LINE
8
0
10
104.7875
20
-89.2875
11
104.7875
21
-91.6875
0
LINE
8
0
10
104.7875
20
-91.6875
11
102.3875
21
-91.6875
0
LINE
8
0
10
102.3875
20
-91.6875
11
102.3875
21
-89.2875
0
LINE
8
0
10
102.3875
20
-89.2875
11
104.7875
21
-89.2875
0
LINE
8
0
10
116.8875
20
-89.2875
11
116.8875
21
-91.6875
0
LINE
8
0
10
116.8875
20
-91.6875
11
114.4875
21
-91.6875
0
LINE
8
0
10
114.4875
20
-91.6875
11
114.4875
21
-89.2875
0
LINE
8
0
10
114.4875
20
-89.2875
11
116.8875
21
-89.2875
0
CIRCLE
8
0
10
109.6375
20
-90.4875
40
3.15
0
LINE
8
0
10
103.4875
20
-94.3875
11
103.4875
21
-99.4875
0
LINE
8
0
10
103.4875
20
-99.4875
11
100.8875
21
-99.4875
0
LINE
8
0
10
100.8875
20
-99.4875
11
100.8875
21
-94.3875
0
LINE
8
0
10
100.8875
20
-94.3875
11
103.4875
21
-94.3875
0
LINE
8
0
10
191.7875
20
-94.3875
11
191.7875
21
-99.4875
0
LINE
8
0
10
191.7875
20
-99.4875
11
194.3875
21
-99.4875
0
LINE
8
0
10
194.3875
20
-99.4875
11
194.3875
21
-94.3875
0
LINE
8
0
10
194.3875
20
-94.3875
11
191.7875
21
-94.3875
0
LINE
8
0
10
155.3875
20
-84.0875
11
139.8875
21
-84.0875
0
LINE
8
0
10
139.8875
20
-84.0875
11
139.8875
21
-96.8875
0
LINE
8
0
10
139.8875
20
-96.8875
11
155.3875
21
-96.8875
0
LINE
8
0
10
155.3875
20
-96.8875
11
155.3875
21
-84.0875
0
LINE
8
0
10
256.28125
20
-56.2875
11
256.28125
21
-61.3875
0
LINE
8
0
10
256.28125
20
-61.3875
11
253.68125
21
-61.3875
0
LINE
8
0
10
253.68125
20
-61.3875
11
253.68125
21
-56.2875
0
LINE
8
0
10
253.68125
20
-56.2875
11
256.28125
21
-56.2875
0
LINE
8
0
10
281.88125
20
-56.2875
11
281.88125
21
-61.3875
0
LINE
8
0
10
281.88125
20
-61.3875
11
284.48125
21
-61.3875
0
LINE
8
0
10
284.48125
20
-61.3875
11
284.48125
21
-56.2875
0
LINE
8
0
10
284.48125
20
-56.2875
11
281.88125
21
-56.2875
0
LINE
8
0
10
276.83125
20
-45.9875
11
261.33125
21
-45.9875
0
LINE
8
0
10
261.33125
20
-45.9875
11
261.33125
21
-58.7875
0
LINE
8
0
10
261.33125
20
-58.7875
11
276.83125
21
-58.7875
0
LINE
8
0
10
276.83125
20
-58.7875
11
276.83125
21
-45.9875
0
LINE
8
0
10
258.6625
20
-18.1875
11
258.6625
21
-23.2875
0
LINE
8
0
10
258.6625
20
-23.2875
11
256.0625
21
-23.2875
0
LINE
8
0
10
256.0625
20
-23.2875
11
256.0625
21
-18.1875
0
LINE
8
0
10
256.0625
20
-18.1875
11
258.6625
21
-18.1875
0
LINE
8
0
10
284.2625
20
-18.1875
11
284.2625
21
-23.2875
0
LINE
8
0
10
284.2625
20
-23.2875
11
286.8625
21
-23.2875
0
LINE
8
0
10
286.8625
20
-23.2875
11
286.8625
21
-18.1875
0
LINE
8
0
10
286.8625
20
-18.1875
11
284.2625
21
-18.1875
0
LINE
8
0
10
279.2125
20
-7.8875
11
263.7125
21
-7.8875
0
LINE
8
0
10
263.7125
20
-7.8875
11
263.7125
21
-20.6875
0
LINE
8
0
10
263.7125
20
-20.6875
11
279.2125
21
-20.6875
0
LINE
8
0
10
279.2125
20
-20.6875
11
279.2125
21
-7.8875
0
LINE
8
0
10
13.39375
20
-75.3375
11
13.39375
21
-80.4375
0
LINE
8
0
10
13.39375
20
-80.4375
11
10.79375
21
-80.4375
0
LINE
8
0
10
10.79375
20
-80.4375
11
10.79375
21
-75.3375
0
LINE
8
0
10
10.79375
20
-75.3375
11
13.39375
21
-75.3375
0
LINE
8
0
10
38.99375
20
-75.3375
11
38.99375
21
-80.4375
0
LINE
8
0
10
38.99375
20
-80.4375
11
41.59375
21
-80.4375
0
LINE
8
0
10
41.59375
20
-80.4375
11
41.59375
21
-75.3375
0
LINE
8
0
10
41.59375
20
-75.3375
11
38.99375
21
-75.3375
0
LINE
8
0
10
33.94375
20
-65.0375
11
18.44375
21
-65.0375
0
LINE
8
0
10
18.44375
20
-65.0375
11
18.44375
21
-77.8375
0
LINE
8
0
10
18.44375
20
-77.8375
11
33.94375
21
-77.8375
0
LINE
8
0
10
33.94375
20
-77.8375
11
33.94375
21
-65.0375
0
LINE
8
0
10
193.4875
20
-7.8875
11
177.9875
21
-7.8875
0
LINE
8
0
10
177.9875
20
-7.8875
11
177.9875
21
-20.6875
0
LINE
8
0
10
177.9875
20
-20.6875
11
193.4875
21
-20.6875
0
LINE
8
0
10
193.4875
20
-20.6875
11
193.4875
21
-7.8875
0
LINE
8
0
10
174.4375
20
-7.8875
11
158.9375
21
-7.8875
0
LINE
8
0
10
158.9375
20
-7.8875
11
158.9375
21
-20.6875
0
LINE
8
0
10
158.9375
20
-20.6875
11
174.4375
21
-20.6875
0
LINE
8
0
10
174.4375
20
-20.6875
11
174.4375
21
-7.8875
0
LINE
8
0
10
183.9625
20
-26.9375
11
168.4625
21
-26.9375
0
LINE
8
0
10
168.4625
20
-26.9375
11
168.4625
21
-39.7375
0
LINE
8
0
10
168.4625
20
-39.7375
11
183.9625
21
-39.7375
0
LINE
8
0
10
183.9625
20
-39.7375
11
183.9625
21
-26.9375
0
LINE
8
0
10
169.675
20
-45.9875
11
154.175
21
-45.9875
0
LINE
8
0
10
154.175
20
-45.9875
11
154.175
21
-58.7875
0
LINE
8
0
10
154.175
20
-58.7875
11
169.675
21
-58.7875
0
LINE
8
0
10
169.675
20
-58.7875
11
169.675
21
-45.9875
0
LINE
8
0
10
150.625
20
-45.9875
11
135.125
21
-45.9875
0
LINE
8
0
10
135.125
20
-45.9875
11
135.125
21
-58.7875
0
LINE
8
0
10
135.125
20
-58.7875
11
150.625
21
-58.7875
0
LINE
8
0
10
150.625
20
-58.7875
11
150.625
21
-45.9875
0
LINE
8
0
10
160.15
20
-65.0375
11
144.65
21
-65.0375
0
LINE
8
0
10
144.65
20
-65.0375
11
144.65
21
-77.8375
0
LINE
8
0
10
144.65
20
-77.8375
11
160.15
21
-77.8375
0
LINE
8
0
10
160.15
20
-77.8375
11
160.15
21
-65.0375
0
LINE
8
0
10
141.1
20
-65.0375
11
125.6
21
-65.0375
0
LINE
8
0
10
125.6
20
-65.0375
11
125.6
21
-77.8375
0
LINE
8
0
10
125.6
20
-77.8375
11
141.1
21
-77.8375
0
LINE
8
0
10
141.1
20
-77.8375
11
141.1
21
-65.0375
0
LINE
8
0
10
155.3875
20
-7.8875
11
139.8875
21
-7.8875
0
LINE
8
0
10
139.8875
20
-7.8875
11
139.8875
21
-20.6875
0
LINE
8
0
10
139.8875
20
-20.6875
11
155.3875
21
-20.6875
0
LINE
8
0
10
155.3875
20
-20.6875
11
155.3875
21
-7.8875
0
LINE
8
0
10
136.3375
20
-7.8875
11
120.8375
21
-7.8875
0
LINE
8
0
10
120.8375
20
-7.8875
11
120.8375
21
-20.6875
0
LINE
8
0
10
120.8375
20
-20.6875
11
136.3375
21
-20.6875
0
LINE
8
0
10
136.3375
20
-20.6875
11
136.3375
21
-7.8875
0
LINE
8
0
10
164.9125
20
-26.9375
11
149.4125
21
-26.9375
0
LINE
8
0
10
149.4125
20
-26.9375
11
149.4125
21
-39.7375
0
LINE
8
0
10
149.4125
20
-39.7375
11
164.9125
21
-39.7375
0
LINE
8
0
10
164.9125
20
-39.7375
11
164.9125
21
-26.9375
0
LINE
8
0
10
145.8625
20
-26.9375
11
130.3625
21
-26.9375
0
LINE
8
0
10
130.3625
20
-26.9375
11
130.3625
21
-39.7375
0
LINE
8
0
10
130.3625
20
-39.7375
11
145.8625
21
-39.7375
0
LINE
8
0
10
145.8625
20
-39.7375
11
145.8625
21
-26.9375
0
LINE
8
0
10
131.575
20
-45.9875
11
116.075
21
-45.9875
0
LINE
8
0
10
116.075
20
-45.9875
11
116.075
21
-58.7875
0
LINE
8
0
10
116.075
20
-58.7875
11
131.575
21
-58.7875
0
LINE
8
0
10
131.575
20
-58.7875
11
131.575
21
-45.9875
0
LINE
8
0
10
122.05
20
-65.0375
11
106.55
21
-65.0375
0
LINE
8
0
10
106.55
20
-65.0375
11
106.55
21
-77.8375
0
LINE
8
0
10
106.55
20
-77.8375
11
122.05
21
-77.8375
0
LINE
8
0
10
122.05
20
-77.8375
11
122.05
21
-65.0375
0
LINE
8
0
10
103.0
20
-65.0375
11
87.5
21
-65.0375
0
LINE
8
0
10
87.5
20
-65.0375
11
87.5
21
-77.8375
0
LINE
8
0
10
87.5
20
-77.8375
11
103.0
21
-77.8375
0
LINE
8
0
10
103.0
20
-77.8375
11
103.0
21
-65.0375
0
LINE
8
0
10
117.2875
20
-7.8875
11
101.7875
21
-7.8875
0
LINE
8
0
10
101.7875
20
-7.8875
11
101.7875
21
-20.6875
0
LINE
8
0
10
101.7875
20
-20.6875
11
117.2875
21
-20.6875
0
LINE
8
0
10
117.2875
20
-20.6875
11
117.2875
21
-7.8875
0
LINE
8
0
10
98.2375
20
-7.8875
11
82.7375
21
-7.8875
0
LINE
8
0
10
82.7375
20
-7.8875
11
82.7375
21
-20.6875
0
LINE
8
0
10
82.7375
20
-20.6875
11
98.2375
21
-20.6875
0
LINE
8
0
10
98.2375
20
-20.6875
11
98.2375
21
-7.8875
0
LINE
8
0
10
126.8125
20
-26.9375
11
111.3125
21
-26.9375
0
LINE
8
0
10
111.3125
20
-26.9375
11
111.3125
21
-39.7375
0
LINE
8
0
10
111.3125
20
-39.7375
11
126.8125
21
-39.7375
0
LINE
8
0
10
126.8125
20
-39.7375
11
126.8125
21
-26.9375
0
LINE
8
0
10
107.7625
20
-26.9375
11
92.2625
21
-26.9375
0
LINE
8
0
10
92.2625
20
-26.9375
11
92.2625
21
-39.7375
0
LINE
8
0
10
92.2625
20
-39.7375
11
107.7625
21
-39.7375
0
LINE
8
0
10
107.7625
20
-39.7375
11
107.7625
21
-26.9375
0
LINE
8
0
10
112.525
20
-45.9875
11
97.025
21
-45.9875
0
LINE
8
0
10
97.025
20
-45.9875
11
97.025
21
-58.7875
0
LINE
8
0
10
97.025
20
-58.7875
11
112.525
21
-58.7875
0
LINE
8
0
10
112.525
20
-58.7875
11
112.525
21
-45.9875
0
LINE
8
0
10
93.475
20
-45.9875
11
77.975
21
-45.9875
0
LINE
8
0
10
77.975
20
-45.9875
11
77.975
21
-58.7875
0
LINE
8
0
10
77.975
20
-58.7875
11
93.475
21
-58.7875
0
LINE
8
0
10
93.475
20
-58.7875
11
93.475
21
-45.9875
0
LINE
8
0
10
83.95
20
-65.0375
11
68.45
21
-65.0375
0
LINE
8
0
10
68.45
20
-65.0375
11
68.45
21
-77.8375
0
LINE
8
0
10
68.45
20
-77.8375
11
83.95
21
-77.8375
0
LINE
8
0
10
83.95
20
-77.8375
11
83.95
21
-65.0375
0
LINE
8
0
10
79.1875
20
-84.0875
11
63.6875
21
-84.0875
0
LINE
8
0
10
63.6875
20
-84.0875
11
63.6875
21
-96.8875
0
LINE
8
0
10
63.6875
20
-96.8875
11
79.1875
21
-96.8875
0
LINE
8
0
10
79.1875
20
-96.8875
11
79.1875
21
-84.0875
0
LINE
8
0
10
79.1875
20
-7.8875
11
63.6875
21
-7.8875
0
LINE
8
0
10
63.6875
20
-7.8875
11
63.6875
21
-20.6875
0
LINE
8
0
10
63.6875
20
-20.6875
11
79.1875
21
-20.6875
0
LINE
8
0
10
79.1875
20
-20.6875
11
79.1875
21
-7.8875
0
LINE
8
0
10
60.1375
20
-7.8875
11
44.6375
21
-7.8875
0
LINE
8
0
10
44.6375
20
-7.8875
11
44.6375
21
-20.6875
0
LINE
8
0
10
44.6375
20
-20.6875
11
60.1375
21
-20.6875
0
LINE
8
0
10
60.1375
20
-20.6875
11
60.1375
21
-7.8875
0
LINE
8
0
10
88.7125
20
-26.9375
11
73.2125
21
-26.9375
0
LINE
8
0
10
73.2125
20
-26.9375
11
73.2125
21
-39.7375
0
LINE
8
0
10
73.2125
20
-39.7375
11
88.7125
21
-39.7375
0
LINE
8
0
10
88.7125
20
-39.7375
11
88.7125
21
-26.9375
0
LINE
8
0
10
69.6625
20
-26.9375
11
54.1625
21
-26.9375
0
LINE
8
0
10
54.1625
20
-26.9375
11
54.1625
21
-39.7375
0
LINE
8
0
10
54.1625
20
-39.7375
11
69.6625
21
-39.7375
0
LINE
8
0
10
69.6625
20
-39.7375
11
69.6625
21
-26.9375
0
LINE
8
0
10
74.425
20
-45.9875
11
58.925
21
-45.9875
0
LINE
8
0
10
58.925
20
-45.9875
11
58.925
21
-58.7875
0
LINE
8
0
10
58.925
20
-58.7875
11
74.425
21
-58.7875
0
LINE
8
0
10
74.425
20
-58.7875
11
74.425
21
-45.9875
0
LINE
8
0
10
64.9
20
-65.0375
11
49.4
21
-65.0375
0
LINE
8
0
10
49.4
20
-65.0375
11
49.4
21
-77.8375
0
LINE
8
0
10
49.4
20
-77.8375
11
64.9
21
-77.8375
0
LINE
8
0
10
64.9
20
-77.8375
11
64.9
21
-65.0375
0
LINE
8
0
10
52.9937
20
-84.0875
11
37.4937
21
-84.0875
0
LINE
8
0
10
37.4937
20
-84.0875
11
37.4937
21
-96.8875
0
LINE
8
0
10
37.4937
20
-96.8875
11
52.9937
21
-96.8875
0
LINE
8
0
10
52.9937
20
-96.8875
11
52.9937
21
-84.0875
0
LINE
8
0
10
41.0875
20
-7.8875
11
25.5875
21
-7.8875
0
LINE
8
0
10
25.5875
20
-7.8875
11
25.5875
21
-20.6875
0
LINE
8
0
10
25.5875
20
-20.6875
11
41.0875
21
-20.6875
0
LINE
8
0
10
41.0875
20
-20.6875
11
41.0875
21
-7.8875
0
LINE
8
0
10
22.0375
20
-7.8875
11
6.5375
21
-7.8875
0
LINE
8
0
10
6.5375
20
-7.8875
11
6.5375
21
-20.6875
0
LINE
8
0
10
6.5375
20
-20.6875
11
22.0375
21
-20.6875
0
LINE
8
0
10
22.0375
20
-20.6875
11
22.0375
21
-7.8875
0
LINE
8
0
10
50.6125
20
-26.9375
11
35.1125
21
-26.9375
0
LINE
8
0
10
35.1125
20
-26.9375
11
35.1125
21
-39.7375
0
LINE
8
0
10
35.1125
20
-39.7375
11
50.6125
21
-39.7375
0
LINE
8
0
10
50.6125
20
-39.7375
11
50.6125
21
-26.9375
0
LINE
8
0
10
26.8
20
-26.9375
11
11.3
21
-26.9375
0
LINE
8
0
10
11.3
20
-26.9375
11
11.3
21
-39.7375
0
LINE
8
0
10
11.3
20
-39.7375
11
26.8
21
-39.7375
0
LINE
8
0
10
26.8
20
-39.7375
11
26.8
21
-26.9375
0
LINE
8
0
10
55.375
20
-45.9875
11
39.875
21
-45.9875
0
LINE
8
0
10
39.875
20
-45.9875
11
39.875
21
-58.7875
0
LINE
8
0
10
39.875
20
-58.7875
11
55.375
21
-58.7875
0
LINE
8
0
10
55.375
20
-58.7875
11
55.375
21
-45.9875
0
LINE
8
0
10
29.18125
20
-45.9875
11
13.68125
21
-45.9875
0
LINE
8
0
10
13.68125
20
-45.9875
11
13.68125
21
-58.7875
0
LINE
8
0
10
13.68125
20
-58.7875
11
29.18125
21
-58.7875
0
LINE
8
0
10
29.18125
20
-58.7875
11
29.18125
21
-45.9875
0
LINE
8
0
10
26.8
20
-84.0875
11
11.3
21
-84.0875
0
LINE
8
0
10
11.3
20
-84.0875
11
11.3
21
-96.8875
0
LINE
8
0
10
11.3
20
-96.8875
11
26.8
21
-96.8875
0
LINE
8
0
10
26.8
20
-96.8875
11
26.8
21
-84.0875
0
LINE
8
0
10
260.1625
20
-26.9375
11
244.6625
21
-26.9375
0
LINE
8
0
10
244.6625
20
-26.9375
11
244.6625
21
-39.7375
0
LINE
8
0
10
244.6625
20
-39.7375
11
260.1625
21
-39.7375
0
LINE
8
0
10
260.1625
20
-39.7375
11
260.1625
21
-26.9375
0
LINE
8
0
10
283.975
20
-26.9375
11
268.475
21
-26.9375
0
LINE
8
0
10
268.475
20
-26.9375
11
268.475
21
-39.7375
0
LINE
8
0
10
268.475
20
-39.7375
11
283.975
21
-39.7375
0
LINE
8
0
10
283.975
20
-39.7375
11
283.975
21
-26.9375
0
LINE
8
0
10
283.975
20
-84.0875
11
268.475
21
-84.0875
0
LINE
8
0
10
268.475
20
-84.0875
11
268.475
21
-96.8875
0
LINE
8
0
10
268.475
20
-96.8875
11
283.975
21
-96.8875
0
LINE
8
0
10
283.975
20
-96.8875
11
283.975
21
-84.0875
0
LINE
8
0
10
250.6375
20
-7.8875
11
235.1375
21
-7.8875
0
LINE
8
0
10
235.1375
20
-7.8875
11
235.1375
21
-20.6875
0
LINE
8
0
10
235.1375
20
-20.6875
11
250.6375
21
-20.6875
0
LINE
8
0
10
250.6375
20
-20.6875
11
250.6375
21
-7.8875
0
LINE
8
0
10
241.1125
20
-26.9375
11
225.6125
21
-26.9375
0
LINE
8
0
10
225.6125
20
-26.9375
11
225.6125
21
-39.7375
0
LINE
8
0
10
225.6125
20
-39.7375
11
241.1125
21
-39.7375
0
LINE
8
0
10
241.1125
20
-39.7375
11
241.1125
21
-26.9375
0
LINE
8
0
10
222.0625
20
-26.9375
11
206.5625
21
-26.9375
0
LINE
8
0
10
206.5625
20
-26.9375
11
206.5625
21
-39.7375
0
LINE
8
0
10
206.5625
20
-39.7375
11
222.0625
21
-39.7375
0
LINE
8
0
10
222.0625
20
-39.7375
11
222.0625
21
-26.9375
0
LINE
8
0
10
245.875
20
-45.9875
11
230.375
21
-45.9875
0
LINE
8
0
10
230.375
20
-45.9875
11
230.375
21
-58.7875
0
LINE
8
0
10
230.375
20
-58.7875
11
245.875
21
-58.7875
0
LINE
8
0
10
245.875
20
-58.7875
11
245.875
21
-45.9875
0
LINE
8
0
10
226.825
20
-45.9875
11
211.325
21
-45.9875
0
LINE
8
0
10
211.325
20
-45.9875
11
211.325
21
-58.7875
0
LINE
8
0
10
211.325
20
-58.7875
11
226.825
21
-58.7875
0
LINE
8
0
10
226.825
20
-58.7875
11
226.825
21
-45.9875
0
LINE
8
0
10
236.35
20
-65.0375
11
220.85
21
-65.0375
0
LINE
8
0
10
220.85
20
-65.0375
11
220.85
21
-77.8375
0
LINE
8
0
10
220.85
20
-77.8375
11
236.35
21
-77.8375
0
LINE
8
0
10
236.35
20
-77.8375
11
236.35
21
-65.0375
0
LINE
8
0
10
217.3
20
-65.0375
11
201.8
21
-65.0375
0
LINE
8
0
10
201.8
20
-65.0375
11
201.8
21
-77.8375
0
LINE
8
0
10
201.8
20
-77.8375
11
217.3
21
-77.8375
0
LINE
8
0
10
217.3
20
-77.8375
11
217.3
21
-65.0375
0
LINE
8
0
10
257.78125
20
-84.0875
11
242.28125
21
-84.0875
0
LINE
8
0
10
242.28125
20
-84.0875
11
242.28125
21
-96.8875
0
LINE
8
0
10
242.28125
20
-96.8875
11
257.78125
21
-96.8875
0
LINE
8
0
10
257.78125
20
-96.8875
11
257.78125
21
-84.0875
0
LINE
8
0
10
231.5875
20
-7.8875
11
216.0875
21
-7.8875
0
LINE
8
0
10
216.0875
20
-7.8875
11
216.0875
21
-20.6875
0
LINE
8
0
10
216.0875
20
-20.6875
11
231.5875
21
-20.6875
0
LINE
8
0
10
231.5875
20
-20.6875
11
231.5875
21
-7.8875
0
LINE
8
0
10
212.5375
20
-7.8875
11
197.0375
21
-7.8875
0
LINE
8
0
10
197.0375
20
-7.8875
11
197.0375
21
-20.6875
0
LINE
8
0
10
197.0375
20
-20.6875
11
212.5375
21
-20.6875
0
LINE
8
0
10
212.5375
20
-20.6875
11
212.5375
21
-7.8875
0
LINE
8
0
10
203.0125
20
-26.9375
11
187.5125
21
-26.9375
0
LINE
8
0
10
187.5125
20
-26.9375
11
187.5125
21
-39.7375
0
LINE
8
0
10
187.5125
20
-39.7375
11
203.0125
21
-39.7375
0
LINE
8
0
10
203.0125
20
-39.7375
11
203.0125
21
-26.9375
0
LINE
8
0
10
207.775
20
-45.9875
11
192.275
21
-45.9875
0
LINE
8
0
10
192.275
20
-45.9875
11
192.275
21
-58.7875
0
LINE
8
0
10
192.275
20
-58.7875
11
207.775
21
-58.7875
0
LINE
8
0
10
207.775
20
-58.7875
11
207.775
21
-45.9875
0
LINE
8
0
10
188.725
20
-45.9875
11
173.225
21
-45.9875
0
LINE
8
0
10
173.225
20
-45.9875
11
173.225
21
-58.7875
0
LINE
8
0
10
173.225
20
-58.7875
11
188.725
21
-58.7875
0
LINE
8
0
10
188.725
20
-58.7875
11
188.725
21
-45.9875
0
LINE
8
0
10
198.25
20
-65.0375
11
182.75
21
-65.0375
0
LINE
8
0
10
182.75
20
-65.0375
11
182.75
21
-77.8375
0
LINE
8
0
10
182.75
20
-77.8375
11
198.25
21
-77.8375
0
LINE
8
0
10
198.25
20
-77.8375
11
198.25
21
-65.0375
0
LINE
8
0
10
179.2
20
-65.0375
11
163.7
21
-65.0375
0
LINE
8
0
10
163.7
20
-65.0375
11
163.7
21
-77.8375
0
LINE
8
0
10
163.7
20
-77.8375
11
179.2
21
-77.8375
0
LINE
8
0
10
179.2
20
-77.8375
11
179.2
21
-65.0375
0
LINE
8
0
10
231.5875
20
-84.0875
11
216.0875
21
-84.0875
0
LINE
8
0
10
216.0875
20
-84.0875
11
216.0875
21
-96.8875
0
LINE
8
0
10
216.0875
20
-96.8875
11
231.5875
21
-96.8875
0
LINE
8
0
10
231.5875
20
-96.8875
11
231.5875
21
-84.0875
0
LINE
8
0
10
244.01875
20
-75.3375
11
244.01875
21
-80.4375
0
LINE
8
0
10
244.01875
20
-80.4375
11
241.41875
21
-80.4375
0
LINE
8
0
10
241.41875
20
-80.4375
11
241.41875
21
-75.3375
0
LINE
8
0
10
241.41875
20
-75.3375
11
244.01875
21
-75.3375
0
LINE
8
0
10
284.61875
20
-75.3375
11
284.61875
21
-80.4375
0
LINE
8
0
10
284.61875
20
-80.4375
11
287.21875
21
-80.4375
0
LINE
8
0
10
287.21875
20
-80.4375
11
287.21875
21
-75.3375
0
LINE
8
0
10
287.21875
20
-75.3375
11
284.61875
21
-75.3375
0
LINE
8
0
10
272.06875
20
-65.0375
11
256.56875
21
-65.0375
0
LINE
8
0
10
256.56875
20
-65.0375
11
256.56875
21
-77.8375
0
LINE
8
0
10
256.56875
20
-77.8375
11
272.06875
21
-77.8375
0
LINE
8
0
10
272.06875
20
-77.8375
11
272.06875
21
-65.0375
0
CIRCLE
8
0
10
30.75
20
-33.3375
40
3.15
0
CIRCLE
8
0
10
195.4375
20
-90.4875
40
3.15
0
CIRCLE
8
0
10
264.525
20
-33.3375
40
3.15
0
LINE
8
0
10
290.1375
20
-7.7875
11
290.1375
21
-58.7125
0
LINE
8
0
10
288.3375
20
-58.7125
11
290.1375
21
-58.7125
0
LINE
8
0
10
5.1375
20
-65.0125
11
5.1375
21
-97.7875
0
LINE
8
0
10
288.3375
20
-65.1125
11
290.1375
21
-65.1125
0
LINE
8
0
10
8.7375
20
-65.0125
11
5.1375
21
-65.0125
0
LINE
8
0
10
8.7375
20
-58.8125
11
5.1375
21
-58.8125
0
ARC
8
0
10
8.7375
20
-61.9125
30
0.0
40
3.1
50
-90.0
51
90.0
0
ARC
8
0
10
288.3375
20
-61.9125
30
0.0
40
3.2
50
90.0
51
270.0
0
ARC
8
0
10
7.6375
20
-97.7875
30
0.0
40
2.5
50
-180.0
51
-90.0
0
ARC
8
0
10
287.6375
20
-97.7875
30
0.0
40
2.5
50
-90.0
51
0.0
0
ARC
8
0
10
287.6375
20
-7.7875
30
0.0
40
2.5
50
0.0
51
90.0
0
ARC
8
0
10
7.6375
20
-7.7875
30
0.0
40
2.5
50
90.0
51
180.0
0
LINE
8
0
10
290.1375
20
-97.7875
11
290.1375
21
-65.1125
0
LINE
8
0
10
7.6375
20
-100.2875
11
287.6375
21
-100.2875
0
LINE
8
0
10
5.1375
20
-7.7875
11
5.1375
21
-58.8125
0
LINE
8
0
10
7.6375
20
-5.2875
11
287.6375
21
-5.2875
0
ENDSEC
0
EOF
